<svg width="24" height="24" viewBox="0 0 24 24" fill="none" xmlns="http://www.w3.org/2000/svg">
  <path d="M9 2L7 4H4C3.45 4 3 4.45 3 5V7C3 7.55 3.45 8 4 8H20C20.55 8 21 7.55 21 7V5C21 4.45 20.55 4 20 4H17L15 2H9Z" stroke="#1b8a5a" stroke-width="2" fill="none"/>
  <path d="M5 8V18C5 19.1 5.9 20 7 20H17C18.1 20 19 19.1 19 18V8" stroke="#1b8a5a" stroke-width="2" fill="none"/>
  <path d="M9 12H15" stroke="#1b8a5a" stroke-width="2" stroke-linecap="round"/>
  <path d="M9 16H15" stroke="#1b8a5a" stroke-width="2" stroke-linecap="round"/>
</svg>
